<?xml version="1.0" encoding="utf-8"?>
<!DOCTYPE svg PUBLIC "-//W3C//DTD SVG 1.1//EN" "http://www.w3.org/Graphics/SVG/1.1/DTD/svg11.dtd">
<svg version="1.1" id="Layer_1" xmlns="http://www.w3.org/2000/svg" xmlns:xlink="http://www.w3.org/1999/xlink" x="0px" y="0px"
	 width="640px" height="300px" viewBox="0 0 640 300" enable-background="new 0 0 640 300" xml:space="preserve">
<rect width="640" height="300"/>
<image display="none" overflow="visible" opacity="0.3" width="640" height="300" xlink:href="../png/overview.png" >
</image>
<path fill="none" stroke="#939393" stroke-miterlimit="10" d="M778.488,213.156c0,45.306-51.839,82.033-115.785,82.033
	c-63.947,0-115.786-36.728-115.786-82.033c0-3.062,0.236-6.085,0.698-9.06c6.364-41.043,55.462-72.975,115.088-72.975
	C726.649,131.122,778.488,167.85,778.488,213.156z"/>
<g>
	<path fill="#939292" d="M596.002,217.942c-1.753,0.024,0.332,0.9,2.62,1.254c0.633-0.494,1.207-0.991,1.716-1.477
		C598.914,218.067,597.464,218.074,596.002,217.942"/>
	<path fill="#939292" d="M605.413,215.601c1.043-1.438,1.805-3.012,2.072-4.642c-0.233,1.161-0.865,2.163-1.458,3.221
		c-3.277,2.06-0.311-1.223-0.003-2.472C602.502,216.137,605.539,214.364,605.413,215.601"/>
	<path fill="#939292" d="M608.887,206.579c0.211-3.152-0.622-2.157-0.903-0.952C608.312,205.796,608.571,207.847,608.887,206.579"/>
	<path fill="#939292" d="M589.354,163.502c0.936,0.168,2.023,0.297,1.868,0.52C592.246,163.797,592.478,163.593,589.354,163.502"/>
	<path fill="#939292" d="M591.222,164.021l-0.659,0.138l0.613-0.055L591.222,164.021"/>
	<path fill="#939292" d="M620.399,207.772c0.104,2.832-0.829,4.204-1.67,6.636l-1.517,0.754c-1.24,2.405,0.12,1.527-0.767,3.438
		c-1.937,1.72-5.876,5.377-7.136,5.71c-0.92-0.019,0.624-1.084,0.824-1.5c-2.59,1.776-2.077,2.668-6.042,3.746l-0.115-0.257
		c-9.776,4.591-23.353-4.507-23.174-16.919c-0.106,0.789-0.296,0.593-0.514,0.911c-0.505-6.386,2.955-12.801,8.788-15.42
		c5.706-2.819,12.396-1.661,16.482,2.141c-2.245-2.936-6.713-6.046-12.01-5.756c-5.188,0.083-10.04,3.372-11.66,6.944
		c-2.659,1.672-2.966,6.438-4.124,7.312c-1.56,11.432,2.93,16.368,10.522,22.178c1.195,0.806,0.339,0.927,0.502,1.539
		c-2.524-1.179-4.834-2.96-6.733-5.139c1.008,1.472,2.095,2.903,3.501,4.03c-2.38-0.804-5.558-5.756-6.485-5.957
		c4.102,7.33,16.637,12.854,23.201,10.112c-3.035,0.112-6.896,0.063-10.309-1.195c-1.433-0.736-3.383-2.262-3.033-2.547
		c8.958,3.34,18.213,2.528,25.965-3.673c1.973-1.533,4.126-4.141,4.748-4.177c-0.938,1.405,0.16,0.675-0.559,1.919
		c1.965-3.163-0.856-1.288,2.029-5.463l1.066,1.465c-0.396-2.625,3.267-5.815,2.896-9.968c0.84-1.271,0.937,1.367,0.045,4.288
		c1.237-3.24,0.326-3.761,0.644-6.436c0.344,0.898,0.795,1.854,1.026,2.802c-0.807-3.132,0.827-5.274,1.23-7.094
		c-0.396-0.177-1.244,1.383-1.438-2.315c0.03-1.606,0.449-0.843,0.611-1.237c-0.316-0.183-1.146-1.413-1.651-3.776
		c0.366-0.555,0.978,1.438,1.477,1.521c-0.32-1.878-0.872-3.311-0.894-4.752c-1.454-3.034-0.514,0.403-1.695-1.303
		c-1.546-4.819,1.285-1.12,1.477-3.308c2.346,3.393,3.683,8.649,4.296,10.826c-0.469-2.654-1.226-5.226-2.149-7.716
		c0.713,0.3-1.146-5.461,0.926-1.646c-2.214-8.134-9.478-15.734-16.161-19.3c0.818,0.746,1.85,3.632,1.479,3.779
		c-3.323-1.977-2.739-4.077-3.214-4.911c-2.71-1.099-2.886,0.087-4.679,0.003c-5.104-2.702-6.087-2.416-10.782-4.109l0.214,0.997
		c-3.383-1.124-3.939,0.427-7.594,0.004c-0.223-0.174,1.17-0.626,2.318-0.794c-3.268,0.432-3.116-0.643-6.314,0.118
		c0.789-0.553,1.621-0.917,2.462-1.386c-2.665,0.16-6.362,1.549-5.22,0.288c-4.35,1.936-12.07,4.654-16.404,8.71l-0.136-0.91
		c-1.985,2.379-8.658,7.106-9.189,10.188l-0.531,0.123c-1.033,1.746-1.702,3.726-2.521,5.521c-1.353,2.299-1.982,0.885-1.79,1.246
		c-2.656,5.379-3.978,9.897-5.118,13.603c0.813,1.214,0.021,7.301,0.326,12.173c-1.334,24.06,16.917,47.419,36.869,52.813
		c2.923,1.045,7.271,1.006,10.97,1.112c-4.363-1.246-4.93-0.66-9.18-2.142c-3.065-1.439-3.738-3.085-5.911-4.967l0.861,1.516
		c-4.261-1.505-2.479-1.862-5.944-2.958l0.918-1.196c-1.38-0.104-3.656-2.323-4.278-3.55l-1.51,0.059
		c-1.816-2.235-2.782-3.847-2.713-5.094l-0.486,0.868c-0.554-0.948-6.68-8.385-3.502-6.652c-0.589-0.539-1.374-0.876-2.224-2.421
		l0.646-0.737c-1.529-1.962-2.814-4.48-2.717-5.317c0.814,1.097,1.381,1.303,1.942,1.492c-3.861-9.563-4.077-0.526-7.003-9.734
		l0.62-0.048c-0.475-0.711-0.764-1.486-1.144-2.248l0.268-2.679c-2.778-3.207-0.776-13.641-0.376-19.36
		c0.277-2.326,2.32-4.804,3.873-8.688l-0.945-0.161c1.809-3.15,10.328-12.649,14.273-12.159c1.912-2.397-0.379-0.012-0.752-0.613
		c4.197-4.337,5.518-3.064,8.352-3.846c3.056-1.811-2.624,0.707-1.173-0.689c5.281-1.348,3.743-3.062,10.632-3.745
		c0.728,0.412-1.685,0.636-2.292,1.173c4.4-2.148,13.928-1.66,20.116,1.192c7.181,3.351,15.248,13.252,15.565,22.566l0.362,0.098
		c-0.185,3.701,0.566,7.984-0.732,11.918L620.399,207.772"/>
	<path fill="#939292" d="M576.864,220.345l-0.245,1.227c1.151,1.561,2.066,3.254,3.539,4.475
		C579.098,223.986,578.313,223.132,576.864,220.345"/>
	<path fill="#939292" d="M579.588,220.237c-0.607-0.672-0.97-1.482-1.373-2.291c0.386,1.417,1.178,2.637,1.914,3.879
		L579.588,220.237"/>
	<path fill="#939292" d="M627.791,209.779l-0.258,0.646c-0.471,3.348-1.491,6.662-3.054,9.733
		C626.206,216.917,627.322,213.37,627.791,209.779"/>
	<path fill="#939292" d="M589.701,162.663c1.184-0.433,2.912-0.237,4.17-0.522c-1.64,0.137-3.27,0.219-4.881,0.427L589.701,162.663"
		/>
	<path fill="#939292" d="M548.082,184.754c0.274,2.524-1.902,3.503,0.481,1.839C549.842,183.719,548.064,185.8,548.082,184.754"/>
	<path fill="#939292" d="M545.28,196.437c0.549-1.684,0.648-2.693,0.857-3.668C544.621,194.706,545.439,195.118,545.28,196.437"/>
</g>
<path opacity="0.8" fill="#939291" d="M27.344,268.057c-0.024,0.027-0.024,4.313-0.08,5.434c-0.053,0.904-0.133,2.851-2.05,2.851
	c-1.971,0-2.45-2.267-2.609-3.252c-0.186-1.09-0.186-1.997-0.186-2.396c0-1.278,0.08-4.849,3.089-4.849
	c0.904,0,1.411,0.267,1.812,0.479L27.344,268.057z M19.623,271.198c0,7.513,3.995,7.513,4.582,7.513
	c1.649,0,2.716-0.907,3.167-2.478l0.054,2.37c0.506-0.03,1.012-0.081,1.837-0.081c0.293,0,0.532,0,0.747,0.026
	c0.213,0,0.425,0.025,0.666,0.056c-0.426-0.853-0.746-2.771-0.746-6.928c0-4.047,0-10.89,0.347-12.968
	c-0.958,0.454-1.785,0.746-3.596,0.905c0.719,0.771,0.719,1.173,0.719,4.686c-0.505-0.158-1.144-0.346-2.234-0.346
	C20.394,263.955,19.623,268.109,19.623,271.198"/>
<path opacity="0.8" fill="#939291" enable-background="new    " d="M34.063,269.841c0.027-2.211,0.48-4.182,2.37-4.182
	c2.077,0,2.236,2.289,2.184,4.182H34.063z M41.253,270.107c0-3.118-0.612-6.18-4.554-6.18c-5.432,0-5.432,6.02-5.432,7.297
	c0,5.404,2.421,7.535,6.496,7.535c1.812,0,2.69-0.268,3.169-0.397c-0.024-0.961,0.107-1.57,0.269-2.397
	c-0.561,0.348-1.279,0.8-2.878,0.8c-4.153,0-4.207-3.783-4.207-5.089h7.085L41.253,270.107"/>
<path opacity="0.8" fill="#939291" enable-background="new    " d="M49.916,271.252c0,2.476-0.453,5.809-3.541,5.809
	c-0.427,0-0.958-0.083-1.304-0.163c-0.056-0.959-0.056-2.609-0.056-4.526c0-2.289,0.239-3.486,0.428-4.074
	c0.559-1.892,1.811-1.916,2.049-1.916C49.516,266.38,49.916,269.176,49.916,271.252z M42.274,274.153c0,1.974,0,3.093-0.318,3.941
	c1.09,0.427,2.449,0.665,4.075,0.665c1.037,0,4.046,0,5.67-3.327c0.772-1.545,1.039-3.623,1.039-5.194
	c0-0.959-0.106-3.062-0.879-4.394c-0.745-1.25-1.943-1.891-3.222-1.891c-2.557,0-3.301,2.131-3.701,3.223
	c0-1.357,0.026-6.099,0.239-8.521c-1.729,0.8-2.797,0.933-3.939,1.039c1.038,0.425,1.038,2.185,1.038,7.909v6.55"/>
<path opacity="0.8" fill="#939291" enable-background="new    " d="M57.86,278.604c-0.534-0.081-0.908-0.134-1.681-0.134
	c-0.851,0-1.438,0.053-2.05,0.134c0.267-0.509,0.373-0.751,0.453-2.479c0.105-2.371,0.134-8.709-0.052-10.041
	c-0.135-1.014-0.373-1.171-0.746-1.438c2.184-0.214,2.795-0.372,3.808-0.853c-0.213,1.171-0.24,1.758-0.24,3.542
	C57.299,276.524,57.27,277.513,57.86,278.604"/>
<path opacity="0.8" fill="#939291" enable-background="new    " d="M66.385,271.063c-0.054,1.678-0.08,2.853-0.534,3.782
	c-0.559,1.198-1.489,1.545-2.184,1.545c-1.599,0-1.944-1.331-1.944-2.637c0-2.503,2.238-2.691,3.249-2.691L66.385,271.063
	L66.385,271.063L66.385,271.063z M59.061,274.342c0,1.677,0.508,3.354,1.998,4.075c0.666,0.294,1.331,0.294,1.545,0.294
	c2.451,0,3.275-1.813,3.781-2.935c-0.027,1.172,0,1.895,0.081,2.827c0.479-0.03,0.958-0.082,1.757-0.082
	c0.453,0,0.878,0.052,1.33,0.082c-0.293-0.454-0.452-0.722-0.532-1.759c-0.053-1.012-0.053-2.025-0.053-3.438l0.027-5.432
	c0-2.023-0.534-4.021-4.528-4.021c-2.636,0-4.18,0.8-4.952,1.199c0.32,0.585,0.586,1.09,0.826,2.237
	c1.04-0.907,2.398-1.387,3.781-1.387c2.212,0,2.212,1.467,2.212,3.54c-0.507-0.024-0.934-0.076-1.653-0.076
	C61.298,269.47,59.061,270.772,59.061,274.342"/>
<path opacity="0.8" fill="#939291" d="M81.722,275.966c0.027,0.907,0.027,1.864,0.4,2.639c-0.587-0.055-0.935-0.134-2.023-0.134
	c-0.64,0-0.985,0.053-1.493,0.134c0.106-0.348,0.16-0.479,0.215-0.933c0.079-0.611,0.133-2.664,0.133-3.385v-2.877
	c0-1.25,0-3.063-0.081-3.7c-0.053-0.451-0.187-1.679-1.73-1.679c-1.518,0-2.023,1.118-2.21,2.024
	c-0.211,0.932-0.211,1.943-0.211,5.886c0.025,3.409,0.025,3.729,0.292,4.662c-0.453-0.056-1.011-0.109-1.809-0.109
	c-0.642,0-1.067,0.027-1.599,0.109c0.187-0.426,0.294-0.642,0.347-2.132c0.055-1.464,0.161-8.656-0.08-10.36
	c-0.134-1.038-0.399-1.275-0.692-1.543c2.157-0.106,2.851-0.453,3.517-0.799v2.822c0.318-0.828,0.984-2.664,3.647-2.664
	c3.327,0,3.354,2.423,3.381,4.021v8.018"/>
<path opacity="0.8" fill="#939291" enable-background="new    " d="M58.083,260.026l-2.206,2.204l-2.205-2.204l2.206-2.204
	L58.083,260.026"/>
<text transform="matrix(1 0 0 1 84.3716 273.877)" opacity="0.8" fill="#939191" font-family="'Poppl-Laudatio-Condensed'" font-size="14.9885">8</text>
</svg>
